HIERARCHY
ROOT root
{
	OFFSET	0	13.1	24.9
	CHANNELS 6  Xposition Yposition Zposition Xrotation Yrotation Zrotation
	JOINT spine_1
	{
		OFFSET	0	9.99999	0
		CHANNELS 3  Xrotation Yrotation Zrotation
		JOINT spine_2
		{
			OFFSET	0	112	-10
			CHANNELS 3  Xrotation Yrotation Zrotation
			JOINT spine_3
			{
				OFFSET	0	206.5	19.3
				CHANNELS 3  Xrotation Yrotation Zrotation
				JOINT spine_4
				{
					OFFSET	0	110.4	14.6
					CHANNELS 3  Xrotation Yrotation Zrotation
					JOINT neck_1
					{
						OFFSET	0	71.8	-50.3
						CHANNELS 3  Xrotation Yrotation Zrotation
						JOINT neck_2
						{
							OFFSET	0	86.2	-25.8
							CHANNELS 3  Xrotation Yrotation Zrotation
							JOINT head_ee
							{
								OFFSET	0	179.8	-8.7
								CHANNELS 3  Xrotation Yrotation Zrotation
								End Site
								{
									OFFSET	1	0	0
								}
							}
						}
					}
					JOINT left_clavicle
					{
						OFFSET	-43.2	22.4	-70.8
						CHANNELS 3  Xrotation Yrotation Zrotation
						JOINT left_shoulder
						{
							OFFSET	-93.9	-5.79999	48.7
							CHANNELS 3  Xrotation Yrotation Zrotation
							JOINT left_elbow
							{
								OFFSET	-291.4	-30.8	15.2
								CHANNELS 3  Xrotation Yrotation Zrotation
								JOINT left_lowarm_twist
								{
									OFFSET	-110.7	-3.89999	13.6
									CHANNELS 3  Xrotation Yrotation Zrotation
									JOINT left_hand
									{
										OFFSET	-110.7	-3.89999	13.6
										CHANNELS 3  Xrotation Yrotation Zrotation
										JOINT left_ee
										{
											OFFSET	-80.8	-5.10001	12.1
											CHANNELS 3  Xrotation Yrotation Zrotation
											End Site
											{
												OFFSET	1	0	0
											}
										}
									}
								}
							}
						}
					}
					JOINT right_clavicle
					{
						OFFSET	43.2	22.4	-70.8
						CHANNELS 3  Xrotation Yrotation Zrotation
						JOINT right_shoulder
						{
							OFFSET	93.9	-5.79999	48.7
							CHANNELS 3  Xrotation Yrotation Zrotation
							JOINT right_elbow
							{
								OFFSET	291.4	-30.8	15.2
								CHANNELS 3  Xrotation Yrotation Zrotation
								JOINT right_lowarm_twist
								{
									OFFSET	110.7	-3.89999	13.6
									CHANNELS 3  Xrotation Yrotation Zrotation
									JOINT right_hand
									{
										OFFSET	110.7	-3.89999	13.6
										CHANNELS 3  Xrotation Yrotation Zrotation
										JOINT right_ee
										{
											OFFSET	80.8	-5.10001	12.1
											CHANNELS 3  Xrotation Yrotation Zrotation
											End Site
											{
												OFFSET	1	0	0
											}
										}
									}
								}
							}
						}
					}
				}
			}
		}
	}
	JOINT left_hip
	{
		OFFSET	-82.8	-127.5	0.300001
		CHANNELS 3  Xrotation Yrotation Zrotation
		JOINT left_knee
		{
			OFFSET	-28.2	-396.7	2.2
			CHANNELS 3  Xrotation Yrotation Zrotation
			JOINT left_ankle
			{
				OFFSET	-11.7	-411.3	35.4
				CHANNELS 3  Xrotation Yrotation Zrotation
				JOINT left_toes
				{
					OFFSET	0	-60	-88.6
					CHANNELS 3  Xrotation Yrotation Zrotation
					JOINT left_foot_ee
					{
						OFFSET	-22.5	-16.5	-42.2
						CHANNELS 3  Xrotation Yrotation Zrotation
						End Site
						{
							OFFSET	1	0	0
						}
					}
				}
			}
		}
	}
	JOINT right_hip
	{
		OFFSET	82.8	-127.5	0.300001
		CHANNELS 3  Xrotation Yrotation Zrotation
		JOINT right_knee
		{
			OFFSET	28.2	-396.7	2.2
			CHANNELS 3  Xrotation Yrotation Zrotation
			JOINT right_ankle
			{
				OFFSET	11.7	-411.3	35.4
				CHANNELS 3  Xrotation Yrotation Zrotation
				JOINT right_toes
				{
					OFFSET	0	-60	-88.6
					CHANNELS 3  Xrotation Yrotation Zrotation
					JOINT right_foot_ee
					{
						OFFSET	22.5	-16.5	-42.2
						CHANNELS 3  Xrotation Yrotation Zrotation
						End Site
						{
							OFFSET	1	0	0
						}
					}
				}
			}
		}
	}
}
MOTION
Frames: 9
Frame Time: 0.02
841.479763222 596.259 -1575.87904388 -61.2579992706 80.1153384932 64.9274673917 5.84001 0.00619098 1.32706 5.84099 -0.0782582 1.32476 5.83814 -0.223079 1.30819 5.83575 -0.0136934 1.327 -12.0604 5.30893 -2.07247 -12.1172 11.3986 -0.485967 -0.0 0.0 -0.0 -6.67895 14.0661 -9.36399 -5.35783 -30.4009 62.7405 2.16592 -47.009 0.942063 9.34582 0.234343 -1.16952 2.958 -1.09529 19.7486 -0.0 0.0 -0.0 5.505 -17.4878 -10.5758 -33.6794 34.188 -56.7291 1.11928 29.0057 -0.289534 82.8839 4.17498 8.7639 4.54992 -1.72703 -32.8273 0.0 0.0 0.0 14.3012 15.7763 -4.22483 5.36997 -0.258082 -0.783132 11.0005 -26.7943 -1.89255 5.67824 -0.0 -0.0 -0.0 0.0 -0.0 33.9783 6.6024 -9.97127 -45.0355 0.817792 -6.68834 17.6791 -18.6802 2.48756 31.9472 -0.0 -0.0 0.0 0.0 0.0 
831.448255387 588.815 -1568.54384026 -84.7799049707 81.7745165288 87.8218844566 5.60398 0.0925608 1.4458 5.60514 0.000383038 1.44876 5.60397 -0.164379 1.43941 5.60109 0.0649862 1.4473 -12.2853 6.1643 -0.769457 -12.3674 12.1906 1.03594 -0.0 0.0 -0.0 -6.19507 10.9678 -9.39311 -6.35928 -31.003 62.5052 2.26338 -48.2638 1.01408 7.98859 0.212205 -0.997567 3.0426 -1.75583 20.0831 -0.0 0.0 -0.0 5.6149 -16.1228 -10.7947 -36.8399 33.8509 -57.423 0.856318 22.9862 -0.174116 83.2349 4.21645 8.7815 4.39701 -4.16794 -32.5709 0.0 0.0 0.0 13.8235 15.1522 -2.80532 3.95872 -0.183146 -0.579667 17.8486 -29.4704 -3.06932 2.95517 -0.0 -0.0 -0.0 0.0 -0.0 35.4047 8.43199 -9.76605 -43.0673 0.673351 -6.42225 18.1026 -24.6826 2.61191 35.0577 -0.0 -0.0 0.0 0.0 0.0 
820.842385151 587.412 -1559.23140979 -106.236253341 82.2255084634 108.401795154 5.358 -0.037059 1.5826 5.35939 -0.137676 1.57704 5.35431 -0.322946 1.54975 5.35097 -0.0741706 1.5813 -13.038 4.18291 -0.708435 -13.0819 8.40099 0.574183 -0.0 0.0 -0.0 -5.75712 6.84573 -9.66124 -9.89146 -37.6257 61.1421 2.2648 -48.2817 1.01514 6.53409 0.183967 -0.813921 2.96609 -3.12845 18.9684 -0.0 0.0 -0.0 5.80574 -14.9895 -11.1416 -39.6891 32.6509 -57.384 0.692689 18.9391 -0.115539 79.9729 3.83542 8.60824 4.07946 -11.7192 -32.6536 0.0 0.0 0.0 12.1448 13.3216 -0.503669 3.04592 -0.137362 -0.447129 20.302 -30.3429 -3.48255 -1.45526 0.0 0.0 -0.0 0.0 -0.0 32.8573 8.76547 -7.28874 -39.8244 0.455633 -5.97369 20.664 -27.9717 3.01017 31.9573 -0.0 -0.0 0.0 0.0 0.0 
798.136726851 587.292 -1543.4777463 -146.766747561 78.8297229668 149.995086004 4.83714 -0.24785 1.4764 4.83828 -0.341284 1.45764 4.8287 -0.523969 1.40238 4.82608 -0.295939 1.46752 -15.5231 2.51906 -4.18502 -15.5232 7.27239 -3.09 -0.0 0.0 -0.0 -4.67064 3.75465 -8.32236 -14.4681 -45.7714 60.3995 1.84661 -42.4467 0.71717 0.485917 0.0168674 -0.0597664 1.66825 -7.02173 8.30959 -0.0 0.0 -0.0 5.31102 -15.8386 -10.3115 -42.7685 31.8879 -58.4424 0.711363 19.4119 -0.121673 73.1191 3.07029 8.17532 4.75206 -25.8943 -40.8307 0.0 0.0 0.0 9.60676 6.87396 -1.07384 -0.670914 0.0270439 0.0994074 23.9891 -26.1136 -3.82146 -9.55006 0.0 0.0 -0.0 0.0 -0.0 33.1346 19.6905 -10.664 -39.6136 0.442369 -5.94413 17.3228 -28.0525 2.5582 23.2404 -0.0 -0.0 0.0 0.0 0.0 
795.677572906 589.892 -1543.42495371 -145.32228885 78.1173463773 148.707357544 4.75088 -0.180994 1.38682 4.75191 -0.268866 1.3725 4.74468 -0.443224 1.32651 4.7423 -0.228186 1.37985 -14.4073 1.87104 -3.42841 -14.3995 5.64401 -2.64987 -0.0 0.0 -0.0 -4.77155 3.49055 -8.5723 -14.8271 -46.9447 60.6581 1.85233 -42.535 0.721039 -0.817308 -0.0295135 0.100202 2.03532 -7.98429 10.408 -0.0 0.0 -0.0 5.79578 -16.3041 -11.0803 -43.2113 31.8295 -57.4238 0.672775 18.4319 -0.109159 73.3796 3.09839 8.19343 5.00999 -29.2033 -43.0603 0.0 0.0 0.0 9.6352 6.18891 -0.895229 1.22106 -0.0522041 -0.180099 22.4951 -26.8627 -3.64741 -11.0811 0.0 0.0 -0.0 0.0 -0.0 35.2465 21.7293 -11.0857 -40.0093 0.46736 -5.99959 14.6162 -27.7656 2.17578 21.8075 -0.0 -0.0 0.0 0.0 0.0 
790.411866386 590.309 -1541.87939433 -141.935846745 78.4048690257 146.118434838 4.58529 0.000474258 0.9483 4.58579 -0.0598667 0.946409 4.58444 -0.183688 0.930341 4.58323 -0.0344596 0.947674 -12.9118 0.728402 -2.22991 -12.9025 2.78789 -1.91598 -0.0 0.0 -0.0 -4.40882 3.08563 -7.96203 -15.5869 -49.6208 60.8906 1.67335 -39.6531 0.603356 -2.26107 -0.0851348 0.276157 1.83339 -8.73146 8.70312 -0.0 0.0 -0.0 5.82133 -16.3383 -11.1202 -43.3736 31.6094 -56.2226 0.738235 20.0874 -0.130753 67.9326 2.52871 7.78889 5.40641 -32.0666 -46.2129 0.0 0.0 0.0 9.9979 2.40975 -1.63128 1.3275 -0.0569371 -0.195746 25.0782 -25.7717 -3.95266 -14.8538 0.0 0.0 -0.0 0.0 -0.0 35.7789 31.4158 -14.4992 -36.2496 0.245571 -5.46611 17.1633 -28.7235 2.54757 22.214 -0.0 -0.0 0.0 0.0 0.0 
787.972919132 588.932 -1541.04466281 -138.549497433 77.0222183959 142.78832554 4.63819 0.021468 1.06462 4.63882 -0.0463162 1.06383 4.63748 -0.184713 1.0487 4.63595 -0.0167826 1.06471 -10.4654 -1.03195 -3.54212 -10.4299 0.424038 -3.70542 -0.0 0.0 -0.0 -4.10004 4.15682 -7.15394 -16.0349 -52.5687 60.7301 1.31074 -32.9941 0.388201 -6.15145 -0.256924 0.74283 2.09331 -4.57463 12.2576 -0.0 0.0 -0.0 5.98506 -17.4809 -11.3345 -44.4149 31.4875 -55.1164 0.851766 22.8766 -0.172342 61.6253 1.92075 7.25581 6.2707 -32.8726 -54.0295 0.0 0.0 0.0 8.9791 -2.24785 -1.24208 7.65359 -0.389917 -1.10836 28.1066 -31.1718 -4.63479 -24.2465 0.0 0.0 -0.0 0.0 -0.0 33.4659 31.7249 -10.419 -27.247 -0.139629 -4.13978 13.0437 -28.2748 1.95861 19.7375 -0.0 -0.0 0.0 0.0 0.0 
787.514142642 588.932 -1541.87021267 -138.008000779 77.1614030207 142.23279073 4.63819 0.021468 1.06462 4.63882 -0.0463162 1.06383 4.63748 -0.184713 1.0487 4.63595 -0.0167826 1.06471 -10.4654 -1.03195 -3.54212 -10.4299 0.424038 -3.70542 -0.0 0.0 -0.0 -4.10004 4.15682 -7.15394 -16.0349 -52.5687 60.7301 1.31074 -32.9941 0.388201 -6.15145 -0.256924 0.74283 2.09331 -4.57463 12.2576 -0.0 0.0 -0.0 5.98506 -17.4809 -11.3345 -44.4149 31.4875 -55.1164 0.851766 22.8766 -0.172342 61.6253 1.92075 7.25581 6.2707 -32.8726 -54.0295 0.0 0.0 0.0 8.9791 -2.24785 -1.24208 7.65359 -0.389917 -1.10836 28.1066 -31.1718 -4.63479 -24.2465 0.0 0.0 -0.0 0.0 -0.0 33.4659 31.7249 -10.419 -27.247 -0.139629 -4.13978 13.0437 -28.2748 1.95861 19.7375 -0.0 -0.0 0.0 0.0 0.0 
787.087400216 588.932 -1542.64384726 -137.490652826 77.2905292553 141.702313801 4.63819 0.021468 1.06462 4.63882 -0.0463162 1.06383 4.63748 -0.184713 1.0487 4.63595 -0.0167826 1.06471 -10.4654 -1.03195 -3.54212 -10.4299 0.424038 -3.70542 -0.0 0.0 -0.0 -4.10004 4.15682 -7.15394 -16.0349 -52.5687 60.7301 1.31074 -32.9941 0.388201 -6.15145 -0.256924 0.74283 2.09331 -4.57463 12.2576 -0.0 0.0 -0.0 5.98506 -17.4809 -11.3345 -44.4149 31.4875 -55.1164 0.851766 22.8766 -0.172342 61.6253 1.92075 7.25581 6.2707 -32.8726 -54.0295 0.0 0.0 0.0 8.9791 -2.24785 -1.24208 7.65359 -0.389917 -1.10836 28.1066 -31.1718 -4.63479 -24.2465 0.0 0.0 -0.0 0.0 -0.0 33.4659 31.7249 -10.419 -27.247 -0.139629 -4.13978 13.0437 -28.2748 1.95861 19.7375 -0.0 -0.0 0.0 0.0 0.0 
